<svg xmlns="http://www.w3.org/2000/svg" width="512" height="512" viewBox="0 0 512 512" version="1.1"><path d="M 236.500 16.687 C 212.443 19.797, 188.270 28.725, 168.211 41.909 L 158.921 48.015 180.211 58.766 C 203.198 70.375, 222.511 82.051, 243.031 96.746 L 256.021 106.049 267.894 97.535 C 292.015 80.239, 320.311 63.355, 341.792 53.443 L 353.084 48.232 348.292 44.735 C 330.005 31.389, 304.551 21.225, 280 17.466 C 271.329 16.139, 244.466 15.658, 236.500 16.687 M 137.061 68.642 C 124.213 82.399, 111.425 103.702, 104.706 122.540 C 101.044 132.806, 97.091 151.407, 96.349 161.868 L 95.702 170.972 101.145 176.236 C 113.631 188.313, 115.410 204.823, 105.738 218.881 L 102.640 223.383 104.760 229.442 C 107.807 238.153, 111.850 247.013, 112.737 246.924 C 113.157 246.882, 117.643 241.594, 122.707 235.174 C 150.291 200.200, 193.351 156.758, 231.283 125.633 C 239.651 118.768, 241.823 116.492, 240.980 115.476 C 239.224 113.360, 210.776 94.336, 198.136 86.824 C 179.439 75.712, 149.458 61, 145.510 61 C 144.788 61, 140.986 64.439, 137.061 68.642 M 354 65.819 C 340.704 71.818, 324.780 80.314, 310.027 89.282 C 298.293 96.415, 271.337 114.646, 270.484 116.027 C 270.225 116.444, 274.399 120.371, 279.757 124.753 C 318.614 156.527, 352.549 190.752, 391.564 237.515 L 395.628 242.386 401.949 233.491 C 409.452 222.934, 410.475 220.662, 413.121 208.662 C 415.712 196.910, 416.763 168.386, 415.079 155.500 C 411.591 128.800, 400.851 102.016, 385.208 81 C 377.972 71.278, 368.117 60.989, 366.091 61.040 C 365.216 61.063, 359.775 63.213, 354 65.819 M 242.500 137.666 C 203.259 169.797, 165.251 208.072, 133.522 247.410 C 127.185 255.266, 122 262.326, 122 263.097 C 122 265.817, 134.917 281.666, 145.168 291.524 C 155.122 301.097, 167.597 310.409, 178.749 316.590 L 183.998 319.500 183.999 335.750 L 184 352 178.174 352 C 173.378 352, 171.965 352.409, 170.174 354.314 C 168.202 356.414, 168 357.698, 168 368.140 C 168 378.880, 168.155 379.797, 170.314 381.826 L 172.629 384 256.140 384 L 339.651 384 341.826 381.686 C 343.798 379.586, 344 378.302, 344 367.860 C 344 357.120, 343.845 356.203, 341.686 354.174 C 339.870 352.468, 338.147 352, 333.686 352 L 328 352 328.021 335.750 L 328.043 319.500 336.385 314.665 C 354.392 304.228, 373.852 286.750, 385.675 270.395 L 390.811 263.291 384.738 255.395 C 353.197 214.390, 306.830 167.326, 264.538 133.389 C 260.159 129.875, 256.334 127.005, 256.038 127.011 C 255.742 127.017, 249.650 131.812, 242.500 137.666 M 170.174 410.314 C 168.201 412.414, 168 413.697, 168 424.159 C 168 434.612, 168.197 435.868, 170.105 437.595 C 172.140 439.436, 175.006 439.500, 256 439.500 C 336.994 439.500, 339.860 439.436, 341.895 437.595 C 343.806 435.866, 344 434.614, 344 424.019 C 344 413.113, 343.848 412.206, 341.686 410.174 L 339.371 408 255.860 408 L 172.349 408 170.174 410.314" stroke="none" fill="#fbcd50" fill-rule="evenodd"/><path d="M 442.500 9.352 C 432.089 12.794, 422.109 19.906, 416.663 27.764 C 413.994 31.616, 413.732 31.734, 405.216 32.913 C 389.836 35.041, 368.040 41.370, 353.944 47.800 C 321.217 62.730, 296.546 76.989, 267.894 97.535 L 256.021 106.049 243.031 96.746 C 209.963 73.064, 167.751 50.382, 139.414 41.067 C 81.391 21.993, 42.776 33.833, 33.425 73.565 C 31.265 82.744, 32.001 106.852, 34.798 118.500 C 38.919 135.667, 46.772 157.489, 54.105 172.155 C 56.622 177.188, 56.763 177.952, 55.389 179.092 C 54.539 179.798, 52.644 182.653, 51.177 185.437 C 48.830 189.892, 48.510 191.640, 48.510 200 C 48.510 208.364, 48.827 210.098, 51.168 214.500 C 54.355 220.492, 59.868 225.934, 66 229.141 C 69.807 231.132, 71.964 231.494, 80 231.492 C 88.390 231.491, 90.100 231.174, 94.638 228.785 C 100.457 225.721, 105.814 219.952, 109.169 213.136 C 112.515 206.338, 112.433 193.504, 108.999 186.500 C 106.041 180.466, 99.750 173.964, 93.845 170.836 C 90.227 168.920, 87.957 168.531, 80.279 168.517 L 71.059 168.500 66.668 159 C 58.433 141.182, 52.031 121.301, 49.954 107.097 C 48.188 95.018, 49.147 77.985, 52.013 70.531 C 55.101 62.499, 62.482 55.112, 70.531 51.999 C 79.496 48.532, 97.828 48.071, 112 50.957 C 134.971 55.634, 164.570 67.528, 191.554 82.925 C 203.500 89.741, 238.989 113.077, 240.887 115.364 C 241.854 116.529, 240.119 118.384, 231.283 125.633 C 194.468 155.841, 154.352 196.078, 124.739 232.500 C 119.820 238.550, 114.250 245.300, 112.362 247.500 C 110.473 249.700, 104.259 258.025, 98.553 266 C 61.249 318.136, 38.293 366.850, 32.917 405.281 L 31.710 413.904 25.813 418.484 C 6.738 433.297, 2.297 461.861, 15.849 482.572 C 20.336 489.429, 23.536 492.566, 30.500 496.935 C 50.768 509.651, 79.115 504.732, 93.684 485.972 L 98.096 480.290 106.719 479.083 C 128.258 476.070, 153.813 467.153, 182.984 452.470 L 199.469 444.173 200.802 450.837 C 204.979 471.724, 221.289 489.001, 242.045 494.525 C 249.045 496.387, 262.955 496.387, 269.955 494.525 C 290.730 488.996, 307.021 471.726, 311.208 450.792 L 312.549 444.084 328.260 452.066 C 365.416 470.946, 395.379 480.026, 420.381 479.983 C 451.843 479.929, 472.236 465.369, 478.575 438.435 C 480.781 429.060, 480.004 405.280, 477.076 392.597 C 474.109 379.745, 467.689 361.412, 461.029 346.773 C 455.922 335.548, 455.420 333.897, 456.778 332.773 C 457.624 332.073, 459.595 328.800, 461.158 325.500 C 463.434 320.693, 464 318.108, 464.004 312.500 C 464.013 302.265, 461.715 296.696, 454.509 289.491 C 447.024 282.005, 441.380 279.756, 430.927 280.095 L 423.683 280.330 415.397 268.915 C 410.840 262.637, 407.086 256.974, 407.056 256.331 C 407.025 255.688, 411.538 248.713, 417.084 240.831 C 451.291 192.218, 473.967 143.375, 479.063 107.329 L 480.360 98.158 485.049 94.658 C 491.419 89.902, 496.286 83.735, 500.212 75.443 C 503.384 68.746, 503.500 68.058, 503.500 56 C 503.500 43.631, 503.461 43.418, 499.772 35.692 C 494.747 25.168, 486.821 17.245, 476.308 12.237 C 468.936 8.725, 467.886 8.504, 457.500 8.274 C 450.430 8.117, 445.071 8.502, 442.500 9.352 M 450.801 25.093 C 430.518 28.230, 418.807 50.978, 427.932 69.514 C 433.483 80.789, 443.633 87.176, 456 87.176 C 468.367 87.176, 478.517 80.789, 484.068 69.514 C 491.734 53.942, 485.345 35.573, 469.664 28.105 C 462.771 24.822, 457.745 24.019, 450.801 25.093 M 398.185 51.168 C 373.678 56.129, 344.741 68.505, 312.680 87.735 C 299.217 95.811, 271.488 114.402, 270.484 116.027 C 270.225 116.444, 274.399 120.371, 279.757 124.753 C 318.614 156.527, 352.549 190.752, 391.564 237.515 L 395.628 242.386 401.605 233.943 C 422.055 205.059, 443.118 166.820, 452.480 141.582 C 456.677 130.267, 461.984 110.836, 461.994 106.750 C 462 104.022, 461.946 104, 455.250 103.988 C 436.702 103.956, 420.405 93.482, 412.280 76.375 C 409.073 69.621, 408.533 67.397, 408.052 58.957 L 407.500 49.281 398.185 51.168 M 242.500 137.666 C 196.595 175.254, 148.201 225.791, 118.016 267.666 C 79.509 321.084, 57.513 364.540, 50.590 400.873 L 49.232 408 56.511 408 C 68.868 408, 83.338 414.105, 91.149 422.614 C 99.154 431.335, 104 443.732, 104 455.489 L 104 462.768 111.025 461.429 C 126.238 458.530, 141.779 453.262, 160.696 444.591 L 170.786 439.966 256 439.966 L 341.214 439.966 351.304 444.591 C 390.039 462.346, 420.977 467.593, 441.552 459.895 C 449.485 456.927, 456.882 449.537, 459.997 441.469 C 463.170 433.248, 463.899 415.202, 461.569 402.500 C 458.807 387.439, 452.793 369.408, 444.428 351.109 L 440.934 343.464 433.489 343.840 C 422.833 344.379, 417.150 342.169, 409.491 334.509 C 402.350 327.369, 399.988 321.712, 399.995 311.770 C 400.001 304.130, 401.911 298.254, 406.174 292.761 L 409.076 289.023 397.422 272.761 C 362.317 223.777, 313.913 173.010, 264.538 133.389 C 260.159 129.875, 256.334 127.005, 256.038 127.011 C 255.742 127.017, 249.650 131.812, 242.500 137.666 M 75.315 185.102 C 70.930 186.371, 66.260 191.322, 64.986 196.053 C 62.150 206.583, 72.159 217.374, 82.894 215.360 C 87.617 214.474, 93.737 208.690, 95.029 203.892 C 97.105 196.182, 91.872 187.258, 83.942 184.983 C 80 183.853, 79.613 183.858, 75.315 185.102 M 428.115 297.028 C 426.254 297.454, 423.186 299.348, 421.297 301.236 C 415.085 307.449, 415.072 316.538, 421.267 322.733 C 432.127 333.593, 450.363 323.410, 446.972 308.378 C 446.142 304.695, 440.899 298.354, 438.061 297.600 C 433.809 296.472, 431.205 296.322, 428.115 297.028 M 184 396 L 184 408 256 408 L 328 408 328 396 L 328 384 256 384 L 184 384 184 396 M 50.132 425.056 C 43.178 426.457, 37.387 429.776, 32.593 435.108 C 22.050 446.835, 21.987 465.096, 32.449 476.733 C 44.384 490.007, 64.281 491.078, 77.229 479.143 C 90.930 466.514, 90.775 445.075, 76.892 432.593 C 69.775 426.194, 59.229 423.224, 50.132 425.056" stroke="none" fill="#6593d7" fill-rule="evenodd"/></svg>